<?xml version="1.0" standalone="no"?>
<!DOCTYPE svg PUBLIC "-//W3C//DTD SVG 20010904//EN"
 "http://www.w3.org/TR/2001/REC-SVG-20010904/DTD/svg10.dtd">
<svg version="1.0" xmlns="http://www.w3.org/2000/svg"
 width="3276.000000pt" height="3276.000000pt" viewBox="0 0 3276.000000 3276.000000"
 preserveAspectRatio="xMidYMid meet">
<metadata>
Created by potrace 1.11, written by Peter Selinger 2001-2013
</metadata>
<g transform="translate(0.000000,3276.000000) scale(0.100000,-0.100000)"
fill="#000000" stroke="none">
<path d="M15859 32746 c-2 -2 -87 -7 -189 -10 -102 -4 -207 -9 -235 -11 -27
-2 -93 -7 -145 -10 -188 -11 -476 -35 -660 -56 -47 -5 -107 -12 -135 -15 -69
-7 -117 -13 -205 -25 -41 -5 -88 -12 -105 -14 -120 -15 -362 -51 -445 -65 -30
-5 -71 -12 -90 -15 -19 -3 -96 -17 -170 -30 -74 -13 -151 -27 -170 -30 -370
-64 -1108 -243 -1600 -389 -25 -8 -71 -21 -102 -30 -114 -31 -648 -211 -853
-287 -306 -112 -664 -254 -830 -329 -22 -10 -67 -29 -100 -43 -33 -14 -73 -32
-90 -41 -16 -9 -33 -16 -36 -16 -4 0 -56 -23 -115 -51 -60 -28 -154 -71 -209
-97 -162 -75 -648 -323 -810 -412 -82 -46 -175 -97 -205 -113 -257 -142 -764
-454 -1075 -662 -173 -117 -601 -417 -650 -457 -5 -4 -82 -63 -170 -130 -181
-137 -238 -181 -245 -188 -3 -3 -61 -50 -130 -105 -69 -55 -127 -102 -130
-105 -3 -3 -48 -41 -100 -85 -149 -126 -279 -238 -404 -350 -296 -265 -800
-758 -1042 -1020 -210 -228 -458 -507 -570 -643 -10 -13 -29 -36 -42 -50 -13
-15 -101 -124 -196 -242 -577 -718 -1060 -1434 -1510 -2234 -155 -277 -178
-319 -350 -661 -168 -334 -205 -410 -348 -735 -54 -124 -103 -234 -108 -245
-15 -31 -126 -308 -172 -425 -22 -58 -51 -133 -64 -167 -88 -225 -213 -592
-332 -973 -28 -90 -130 -439 -137 -470 -3 -14 -28 -110 -55 -215 -28 -104 -57
-217 -64 -250 -8 -33 -30 -127 -49 -210 -102 -434 -235 -1189 -282 -1600 -4
-33 -9 -73 -11 -90 -2 -16 -9 -73 -14 -125 -6 -52 -13 -111 -15 -130 -4 -31
-18 -180 -30 -320 -2 -25 -7 -83 -10 -130 -3 -47 -7 -110 -10 -140 -9 -99 -19
-306 -30 -590 -6 -146 -6 -950 -1 -1060 3 -41 7 -151 11 -245 3 -93 8 -186 10
-205 2 -19 7 -87 10 -150 3 -63 8 -126 10 -140 2 -14 6 -68 10 -120 4 -52 8
-106 10 -120 2 -14 9 -81 15 -150 6 -69 13 -136 15 -150 2 -14 6 -52 10 -85 5
-51 18 -154 40 -330 3 -22 8 -51 10 -65 2 -14 7 -45 10 -70 6 -41 48 -306 75
-470 56 -336 184 -929 281 -1300 299 -1135 677 -2142 1191 -3170 169 -339 212
-420 404 -765 12 -22 50 -87 84 -145 35 -58 74 -125 88 -150 98 -175 428 -689
605 -942 26 -38 67 -97 92 -133 60 -87 250 -345 349 -475 84 -111 414 -526
437 -551 8 -8 31 -35 52 -61 21 -26 43 -53 50 -60 7 -7 52 -60 102 -118 49
-58 94 -110 100 -116 5 -6 44 -49 85 -95 242 -270 296 -326 655 -684 390 -390
631 -613 965 -894 74 -62 146 -123 160 -135 71 -62 398 -320 560 -443 641
-486 1440 -1000 2090 -1345 47 -25 103 -56 125 -68 50 -29 540 -274 659 -330
398 -187 888 -395 1241 -525 50 -18 135 -50 190 -70 117 -44 616 -210 760
-254 354 -107 441 -131 795 -220 323 -82 777 -182 1025 -225 264 -47 563 -94
760 -121 17 -2 64 -9 105 -14 78 -11 484 -56 605 -66 39 -4 81 -8 95 -10 14
-2 70 -7 125 -10 55 -4 120 -8 145 -10 25 -2 97 -6 160 -10 63 -4 142 -8 175
-10 358 -23 1280 -23 1645 0 36 2 112 7 170 10 58 3 128 8 155 10 28 2 86 7
130 10 44 3 100 7 125 10 49 5 118 11 225 20 39 4 81 8 95 10 14 2 54 6 90 10
36 4 76 8 90 10 14 2 50 6 80 10 55 6 323 42 390 51 108 16 180 27 310 49 52
9 109 18 125 21 40 6 225 40 355 65 58 12 197 41 310 66 113 24 214 46 226 49
157 31 825 210 1084 290 238 74 456 145 472 154 10 6 23 10 29 10 19 0 547
195 779 288 716 286 1418 626 2095 1015 148 85 422 250 540 325 39 24 106 67
150 96 184 117 727 490 800 548 16 13 80 61 111 83 54 39 379 289 392 302 8 7
30 26 50 41 35 25 308 248 362 295 14 12 54 46 90 77 36 30 67 57 70 60 3 3
25 23 50 44 102 89 298 266 404 366 48 44 362 348 410 396 163 164 450 467
567 599 24 28 51 57 59 65 25 24 258 296 365 425 55 66 102 122 105 125 11 10
267 335 330 420 36 47 67 87 70 90 8 7 247 337 337 465 589 840 1146 1827
1545 2740 185 421 363 872 478 1205 82 238 199 592 206 625 1 6 18 62 37 126
77 252 206 744 268 1019 16 74 36 164 44 200 8 36 24 110 36 165 11 55 22 107
24 116 2 9 6 34 9 55 4 22 8 46 11 54 4 15 14 73 20 117 2 11 5 29 9 40 3 10
8 38 11 63 3 25 8 52 10 60 2 8 7 33 10 55 3 23 7 50 9 60 2 11 7 40 11 65 4
25 9 52 10 61 2 9 6 40 10 70 3 30 8 61 10 69 2 8 7 35 10 60 3 25 8 56 10 70
2 14 7 50 10 80 4 30 8 66 10 80 10 68 16 109 20 155 2 28 6 64 9 80 5 33 16
129 21 185 2 19 6 67 9 105 4 39 8 86 11 105 2 19 7 71 10 115 3 44 8 91 10
105 2 14 6 77 10 140 4 63 8 131 10 150 2 19 6 112 10 206 4 94 9 200 11 235
4 79 4 995 0 1064 -2 28 -6 133 -10 235 -4 102 -9 201 -11 220 -2 19 -6 89
-10 155 -4 66 -9 128 -10 137 -4 16 -13 117 -20 208 -1 25 -6 70 -9 100 -3 30
-8 78 -11 105 -2 28 -7 70 -9 95 -3 25 -8 72 -12 105 -3 33 -8 68 -9 77 -2 9
-6 43 -10 75 -3 32 -8 69 -10 83 -2 14 -7 49 -10 79 -4 30 -9 63 -11 75 -2 12
-6 41 -9 66 -3 25 -7 56 -10 70 -2 14 -7 43 -10 65 -3 23 -7 52 -10 65 -3 13
-7 42 -10 65 -8 57 -40 246 -49 291 -2 12 -7 37 -10 55 -10 59 -99 504 -111
554 -3 11 -8 34 -11 50 -2 17 -10 48 -15 70 -6 22 -13 49 -15 60 -6 32 -33
145 -50 208 -8 32 -17 67 -19 78 -11 55 -108 423 -150 564 -99 337 -250 805
-331 1024 -120 325 -248 648 -310 789 -13 29 -24 55 -24 57 0 3 -10 27 -21 53
-12 26 -27 61 -34 77 -214 493 -406 881 -690 1400 -405 738 -974 1586 -1530
2280 -159 199 -403 490 -480 574 -47 51 -48 53 -99 111 -437 500 -1182 1222
-1696 1645 -47 38 -87 72 -90 75 -6 7 -163 135 -214 175 -22 17 -73 57 -115
91 -680 542 -1649 1172 -2456 1596 -173 90 -638 321 -770 381 -66 30 -147 67
-180 82 -201 92 -568 244 -847 351 -673 259 -1506 512 -2188 665 -88 20 -392
85 -432 93 -192 37 -445 83 -507 92 -25 4 -55 8 -66 10 -80 15 -324 52 -385
59 -25 3 -56 8 -70 10 -63 10 -245 32 -335 40 -33 3 -67 8 -75 10 -8 2 -51 7
-95 11 -44 3 -87 8 -96 9 -9 2 -63 6 -120 10 -57 4 -111 8 -119 10 -8 2 -62 7
-120 11 -58 3 -121 8 -140 9 -19 2 -96 7 -170 10 -74 4 -162 9 -195 12 -73 6
-1250 15 -1256 9z"/>
</g>
</svg>
